<svg xmlns="http://www.w3.org/2000/svg" xmlns:xlink="http://www.w3.org/1999/xlink" width="2512.238" height="2179.454" viewBox="0 0 2512.238 2179.454">
  <defs>
    <filter id="Subtraction_1" x="0" y="0" width="2512.238" height="2179.454" filterUnits="userSpaceOnUse">
      <feOffset dy="90" input="SourceAlpha"/>
      <feGaussianBlur stdDeviation="49.5" result="blur"/>
      <feFlood/>
      <feComposite operator="in" in2="blur"/>
      <feComposite in="SourceGraphic"/>
    </filter>
    <filter id="Path_2" x="1117.506" y="381.7" width="1297.504" height="1297.504" filterUnits="userSpaceOnUse">
      <feOffset dy="90" input="SourceAlpha"/>
      <feGaussianBlur stdDeviation="49.5" result="blur-2"/>
      <feFlood/>
      <feComposite operator="in" in2="blur-2"/>
      <feComposite in="SourceGraphic"/>
    </filter>
  </defs>
  <g id="logo" transform="translate(-745.932 -961.577)">
    <g id="Group_10" data-name="Group 10" transform="translate(2 -39)">
      <g id="Group_9" data-name="Group 9">
        <g id="Group_7" data-name="Group 7" transform="translate(495 723.077)">
          <g id="Group_1" data-name="Group 1" transform="translate(397.432 336)">
            <g transform="matrix(1, 0, 0, 1, -148.5, -58.5)" filter="url(#Subtraction_1)">
              <g id="Subtraction_1-2" data-name="Subtraction 1" transform="translate(148.5 58.5)" fill="none">
                <path d="M1967.973,1882.454H247.291c-91.255,0-172.041-48.354-216.1-129.346s-41.3-176.033,7.391-254.247L898.92,116.665C944.393,43.613,1022.407,0,1107.609,0S1270.826,43.613,1316.3,116.665l100.456,161.389c-232.773,96.677-383.165,323.87-383.165,578.874,0,344.8,276.738,625.32,616.9,625.32,153.76,0,301.049-57.671,414.735-162.389l111.419,179c48.7,78.2,51.474,173.237,7.425,254.226C2140.006,1834.093,2059.224,1882.454,1967.973,1882.454Z" stroke="none"/>
                <path d="M 1967.972778320313 1732.454345703125 C 2004.447875976563 1732.454345703125 2034.393676757813 1714.328857421875 2052.293701171875 1681.418090820313 C 2070.462890625 1648.0126953125 2069.375244140625 1610.374267578125 2049.293701171875 1578.126831054688 L 2022.489501953125 1535.06396484375 C 1909.609741210938 1598.429931640625 1781.969116210938 1632.248046875 1650.486206054688 1632.248046875 C 1227.618286132813 1632.248046875 883.5899047851563 1284.441040039063 883.5899047851563 856.9276733398438 C 883.5899047851563 600.9552612304688 1006.249877929688 367.453125 1206.588256835938 224.2625427246094 L 1188.954956054688 195.9334869384766 C 1170.784057617188 166.7422332763672 1141.134887695313 150.0001525878906 1107.609497070313 150.0001525878906 C 1074.084106445313 150.0001525878906 1044.434936523438 166.7422332763672 1026.265747070313 195.9305725097656 L 165.9224090576172 1578.130981445313 C 145.8578338623047 1610.363891601563 144.7753295898438 1648.013916015625 162.9524078369141 1681.4267578125 C 180.8536682128906 1714.332275390625 210.8053283691406 1732.454345703125 247.2907562255859 1732.454345703125 L 1967.972778320313 1732.454345703125 M 1967.972778320313 1882.454345703125 L 247.2907562255859 1882.454345703125 C 156.0357513427734 1882.454345703125 75.24949645996094 1834.100952148438 31.1882495880127 1753.108032226563 C -12.87008476257324 1672.12060546875 -10.10758495330811 1577.07470703125 38.57908248901367 1498.861450195313 L 898.919921875 116.6647338867188 C 944.392822265625 43.61306762695313 1022.407409667969 0.000150553387356922 1107.609497070313 0.000150553387356922 C 1192.8115234375 0.000150553387356922 1270.826171875 43.61306762695313 1316.299072265625 116.6647338867188 L 1416.7548828125 278.0534973144531 C 1183.982055664063 374.7305603027344 1033.589965820313 601.9234619140625 1033.589965820313 856.9276733398438 C 1033.589965820313 1201.730590820313 1310.328247070313 1482.248046875 1650.486206054688 1482.248046875 C 1804.246215820313 1482.248046875 1951.534912109375 1424.576782226563 2065.220703125 1319.858520507813 L 2176.639404296875 1498.861450195313 C 2225.337890625 1577.06103515625 2228.11376953125 1672.098022460938 2184.06494140625 1753.086791992188 C 2140.005859375 1834.092651367188 2059.22412109375 1882.454345703125 1967.972778320313 1882.454345703125 Z" stroke="none" fill="#00ffba"/>
              </g>
            </g>
            <g transform="matrix(1, 0, 0, 1, -148.5, -58.5)" filter="url(#Path_2)">
              <g id="Path_2-2" data-name="Path 2" transform="translate(1266.01 440.2)" fill="rgba(255,255,255,0)">
                <path d="M 500.2521362304688 925.5043334960938 C 265.767333984375 925.5043334960938 74.99993896484375 734.7369384765625 74.99993896484375 500.2521362304688 C 74.99993896484375 265.767333984375 265.767333984375 74.99993896484375 500.2521362304688 74.99993896484375 C 734.7369384765625 74.99993896484375 925.5043334960938 265.767333984375 925.5043334960938 500.2521362304688 C 925.5043334960938 734.7369384765625 734.7369384765625 925.5043334960938 500.2521362304688 925.5043334960938 Z" stroke="none"/>
                <path d="M 500.2521362304688 149.9999389648438 C 307.1224365234375 149.9999389648438 149.9999389648438 307.1224365234375 149.9999389648438 500.2521362304688 C 149.9999389648438 693.3818359375 307.1224365234375 850.50439453125 500.2521362304688 850.50439453125 C 693.3818359375 850.50439453125 850.50439453125 693.3818359375 850.50439453125 500.2521362304688 C 850.50439453125 307.1224365234375 693.3818359375 149.9999389648438 500.2521362304688 149.9999389648438 M 500.2521362304688 -6.103515625e-05 C 776.5338134765625 -6.103515625e-05 1000.504333496094 223.970458984375 1000.504333496094 500.2521362304688 C 1000.504333496094 776.5338134765625 776.5338134765625 1000.504333496094 500.2521362304688 1000.504333496094 C 223.970458984375 1000.504333496094 -6.103515625e-05 776.5338134765625 -6.103515625e-05 500.2521362304688 C -6.103515625e-05 223.970458984375 223.970458984375 -6.103515625e-05 500.2521362304688 -6.103515625e-05 Z" stroke="none" fill="#fff"/>
              </g>
            </g>
          </g>
        </g>
      </g>
    </g>
  </g>
</svg>
